<?xml version="1.0" encoding="UTF-8"?><svg id="Layer_2" xmlns="http://www.w3.org/2000/svg" viewBox="0 0 418.39 75.48"><g id="Layer_1-2"><g><g><path d="M129.63,70.69v-13.62l-4.46,8.86h-3.08l-4.49-8.86v13.62h-4.56v-23.37h4.5l6.1,12.63,6.07-12.63h4.5v23.37h-4.56Z" style="fill:#808285;"/><path d="M139.64,70.69v-23.37h4.56v23.37h-4.56Z" style="fill:#808285;"/><path d="M157.46,70.88c-2.5,0-4.6-.85-6.3-2.56-1.02-1.02-1.64-2.2-1.9-3.51-.26-1.31-.39-3.25-.39-5.81s.13-4.5,.39-5.81c.26-1.35,.89-2.5,1.9-3.51,1.71-1.7,3.81-2.56,6.3-2.56,4.5,0,7.81,2.63,8.6,7.38h-4.63c-.49-2-1.74-3.31-3.94-3.31-1.25,0-2.23,.39-2.92,1.21-.95,1.01-1.15,2.06-1.15,6.6s.2,5.58,1.15,6.6c.69,.82,1.67,1.21,2.92,1.21,2.2,0,3.45-1.31,3.94-3.31h4.63c-.79,4.76-4.13,7.38-8.6,7.38Z" style="fill:#808285;"/><path d="M169.99,70.69v-23.37h15.39v4.07h-10.83v5.48h9.22v4.07h-9.22v5.68h10.83v4.07h-15.39Z" style="fill:#808285;"/><path d="M196.28,70.88c-3.54,0-6.23-.75-8.53-3.08l2.95-2.96c1.48,1.48,3.48,1.97,5.64,1.97,2.69,0,4.13-1.02,4.13-2.89,0-.82-.23-1.51-.72-1.97-.46-.43-.99-.66-2.07-.82l-2.82-.39c-2-.29-3.48-.92-4.53-1.94-1.12-1.12-1.67-2.63-1.67-4.59,0-4.17,3.08-7.09,8.14-7.09,3.22,0,5.55,.79,7.55,2.73l-2.89,2.86c-1.48-1.41-3.25-1.61-4.79-1.61-2.43,0-3.61,1.34-3.61,2.95,0,.59,.2,1.21,.69,1.67,.46,.43,1.21,.79,2.17,.92l2.76,.39c2.13,.3,3.48,.88,4.46,1.8,1.25,1.18,1.8,2.89,1.8,4.95,0,4.53-3.77,7.09-8.66,7.09Z" style="fill:#808285;"/><path d="M225.77,51.39v19.3h-4.56v-19.3h-6.11v-4.07h16.77v4.07h-6.1Z" style="fill:#808285;"/><path d="M235.59,70.69v-23.37h15.39v4.07h-10.83v5.48h9.22v4.07h-9.22v5.68h10.83v4.07h-15.39Z" style="fill:#808285;"/><path d="M263.25,70.88c-2.49,0-4.59-.85-6.3-2.56-1.02-1.02-1.64-2.2-1.9-3.51-.26-1.31-.4-3.25-.4-5.81s.13-4.5,.4-5.81c.26-1.35,.89-2.5,1.9-3.51,1.71-1.7,3.81-2.56,6.3-2.56,4.5,0,7.81,2.63,8.6,7.38h-4.63c-.49-2-1.74-3.31-3.94-3.31-1.25,0-2.23,.39-2.92,1.21-.95,1.01-1.15,2.06-1.15,6.6s.2,5.58,1.15,6.6c.69,.82,1.67,1.21,2.92,1.21,2.2,0,3.44-1.31,3.94-3.31h4.63c-.79,4.76-4.13,7.38-8.6,7.38Z" style="fill:#808285;"/><path d="M288.25,70.69v-9.78h-7.91v9.78h-4.56v-23.37h4.56v9.55h7.91v-9.55h4.56v23.37h-4.56Z" style="fill:#808285;"/><path d="M312.07,70.69l-9.25-14.34v14.34h-4.56v-23.37h4.07l9.25,14.31v-14.31h4.56v23.37h-4.07Z" style="fill:#808285;"/><path d="M335.73,68.32c-1.64,1.64-3.64,2.56-6.3,2.56s-4.69-.92-6.34-2.56c-2.36-2.36-2.3-5.28-2.3-9.32s-.06-6.96,2.3-9.32c1.64-1.64,3.68-2.56,6.34-2.56s4.66,.92,6.3,2.56c2.36,2.36,2.33,5.28,2.33,9.32s.03,6.96-2.33,9.32Zm-3.38-15.88c-.66-.75-1.67-1.24-2.92-1.24s-2.3,.49-2.96,1.24c-.88,.98-1.11,2.07-1.11,6.56s.23,5.58,1.11,6.56c.66,.75,1.71,1.25,2.96,1.25s2.26-.49,2.92-1.25c.89-.98,1.15-2.07,1.15-6.56s-.26-5.58-1.15-6.56Z" style="fill:#808285;"/><path d="M342.72,70.69v-23.37h4.56v19.3h10.6v4.07h-15.16Z" style="fill:#808285;"/><path d="M374.88,68.32c-1.64,1.64-3.64,2.56-6.3,2.56s-4.69-.92-6.33-2.56c-2.36-2.36-2.3-5.28-2.3-9.32s-.07-6.96,2.3-9.32c1.64-1.64,3.67-2.56,6.33-2.56s4.66,.92,6.3,2.56c2.36,2.36,2.33,5.28,2.33,9.32s.03,6.96-2.33,9.32Zm-3.38-15.88c-.66-.75-1.67-1.24-2.92-1.24s-2.3,.49-2.95,1.24c-.89,.98-1.12,2.07-1.12,6.56s.23,5.58,1.12,6.56c.66,.75,1.7,1.25,2.95,1.25s2.26-.49,2.92-1.25c.89-.98,1.15-2.07,1.15-6.56s-.26-5.58-1.15-6.56Z" style="fill:#808285;"/><path d="M396.27,68.23c-1.8,1.84-3.97,2.66-6.6,2.66s-4.59-.85-6.3-2.56c-1.02-1.02-1.64-2.2-1.9-3.51-.26-1.31-.39-3.25-.39-5.81s.13-4.5,.39-5.81c.26-1.35,.89-2.5,1.9-3.51,1.71-1.7,3.81-2.56,6.3-2.56,5.32,0,8.17,3.41,8.8,7.48h-4.6c-.56-2.26-1.93-3.41-4.2-3.41-1.21,0-2.2,.42-2.92,1.24-.85,1.08-1.11,1.94-1.11,6.56s.2,5.51,1.11,6.6c.69,.82,1.67,1.21,2.92,1.21,1.35,0,2.43-.43,3.25-1.31,.69-.79,1.05-1.84,1.05-3.12v-.88h-4.3v-3.81h8.83v3.41c0,3.41-.62,5.41-2.23,7.12Z" style="fill:#808285;"/><path d="M411.37,61.1v9.58h-4.53v-9.58l-7.02-13.78h4.95l4.37,9.42,4.3-9.42h4.96l-7.02,13.78Z" style="fill:#808285;"/></g><g><g><path d="M42.77,72.14c0,1.84-3.13,3.34-6.99,3.34s-7-1.5-7-3.34,3.13-3.34,7-3.34,6.99,1.5,6.99,3.34Z" style="fill:#0093d0;"/><path d="M58.94,70.8c0,1.53-2.59,2.77-5.8,2.77s-5.8-1.24-5.8-2.77,2.6-2.77,5.8-2.77,5.8,1.24,5.8,2.77Z" style="fill:#0093d0;"/><path d="M72.83,69.47c0,1.21-2.06,2.2-4.6,2.2s-4.6-.98-4.6-2.2,2.06-2.2,4.6-2.2,4.6,.98,4.6,2.2Z" style="fill:#0093d0;"/></g><path d="M38.24,51.6L31.45,10.37s-.84-7.86-10.42-8.58L6.43,.01S-1.65-.66,.3,7.98L18.86,56.95s1.84,6.35,8.02,5.68l7.52-1s5.79-.45,3.84-10.03Z" style="fill:#0093d0;"/><path d="M45.65,4.3s-9.81-.67-8.25,9.19l4.57,32.93s1.28,7.35,7.47,6.52l7.02-1s5.52-1.34,6.18-8.02l3.79-29.53s1.23-6.91-8.13-8.47l-12.65-1.62Z" style="fill:#0093d0;"/><path d="M82.54,8.31s-8.69-1.5-10.53,7.19l-6.35,34.77s-1.39,6.3,4.18,5.68l8.86-1.17s4.51-.5,8.19-7.3l16.05-29.64s4.46-7.8-6.02-8.19l-14.37-1.34Z" style="fill:#0093d0;"/></g></g></g></svg>